<?xml version="1.0" encoding="UTF-8"?>
<svg id="_レイヤー_2" data-name="レイヤー 2" xmlns="http://www.w3.org/2000/svg" viewBox="0 0 955.05 176.79">
  <defs>
    <style>
      .cls-1 {
        fill: #e3dcc0;
      }

      .cls-2 {
        fill: #c93e24;
      }
    </style>
  </defs>
  <g id="_レイヤー_1-2" data-name="レイヤー 1">
    <g>
      <rect class="cls-2" x="465.97" y="4.29" width="148.07" height="38.25"/>
      <polygon class="cls-2" points="86.72 0 86.72 125.56 106.47 125.56 122.06 92.74 122.06 0 86.72 0"/>
      <path class="cls-1" d="M175.35,0h35.35v176.72h-35.35V0Z"/>
      <path class="cls-1" d="M160.17.05h-73.56c45.16,10.65-4.14,42.39,20.07,59.67,7.55,5.39,15.05,11.19,10.94,22.15l-13.52,35.34C80.08,117.2,58.36,73.15,58.36.05H0c0,110.75,72.43,176.12,94.24,176.12"/>
      <polygon class="cls-2" points="315.51 0 315.51 125.56 335.26 125.56 350.85 92.74 350.85 0 315.51 0"/>
      <path class="cls-1" d="M404.14,0h35.34v176.72h-35.34V0Z"/>
      <path class="cls-1" d="M522.4,3.28l5.3,4.04c-1.01-.17-2.02-.25-3.03-.25-5.39,0-12.88,2.57-22.47,7.7-9.59,5.14-19.1,13.17-28.53,24.11-2.19,2.52-4.76,3.75-7.7,3.66-2.95-.08-5.22-1.39-6.82-3.91-1.6-2.52-1.89-5.72-.88-9.59L466.1,0h147.69l7.83,29.03c1.01,3.87.71,7.07-.88,9.59-1.6,2.52-3.83,3.83-6.69,3.91-2.86.09-5.39-1.14-7.57-3.66-9.59-10.94-19.15-18.97-28.65-24.11-9.51-5.13-16.96-7.7-22.34-7.7-1.01,0-2.02.09-3.03.25l5.3-4.04v173.44h-35.34V3.28Z"/>
      <path class="cls-1" d="M388.96.05h-73.56c45.16,10.65-4.14,42.39,20.07,59.67,7.55,5.39,15.05,11.19,10.94,22.15l-13.52,35.34c-24.02,0-45.74-44.06-45.74-117.15h-58.36c0,110.75,72.43,176.12,94.24,176.12"/>
      <g>
        <path class="cls-1" d="M631.56,74.85h62.02l4.85,17.25c.76,2.38.62,4.3-.43,5.77-1.05,1.47-2.5,2.23-4.35,2.28-1.85.05-3.45-.69-4.78-2.21-6.37-6.84-12.57-11.74-18.61-14.68-6.04-2.95-11.81-4.42-17.32-4.42l-3.71.29,2.28-2.71v98.23h-19.96v-99.8ZM652.94,135.02c3.99-.09,8.24-1.4,12.76-3.92,4.51-2.52,9.1-6.06,13.76-10.62,1.62-1.62,3.3-2.33,5.06-2.14,1.76.19,3.02,1.07,3.78,2.64.76,1.57.62,3.35-.43,5.35l-6.13,12.55-36.5.57v-5.28c2.66.57,5.23.86,7.7.86Z"/>
        <path class="cls-1" d="M714.32,172.16c-5.28-3.09-9.39-7.34-12.33-12.76-2.95-5.42-4.42-11.6-4.42-18.54s1.64-13.92,4.92-20.1c3.28-6.18,7.75-11.1,13.4-14.76,5.65-3.66,11.95-5.49,18.89-5.49,5.51,0,10.34,1.17,14.47,3.49,4.13,2.33,7.32,5.44,9.55,9.34,2.23,3.9,3.35,8.13,3.35,12.69,0,3.33-.57,5.77-1.71,7.34s-2.54,2.54-4.21,2.92c-1.66.38-3.83.57-6.49.57h-37.36v-4.85h36.93l-6.56,3.85.14-3.71c0-4.09-.52-8.13-1.57-12.12-1.05-3.99-2.71-7.32-4.99-9.98-2.28-2.66-5.13-3.99-8.55-3.99-2.85,0-5.28.88-7.27,2.64-2,1.76-3.54,4.23-4.63,7.41-1.09,3.19-1.64,6.91-1.64,11.19,0,5.42,1.02,10.98,3.07,16.68,2.04,5.7,5.28,10.53,9.7,14.47,4.42,3.95,9.96,5.92,16.61,5.92,2.85,0,5.56-.5,8.13-1.5,2.56-1,5.08-2.54,7.55-4.63l2,2.28c-3.61,5.04-7.77,9.01-12.47,11.9s-10.29,4.35-16.75,4.35-12.47-1.55-17.75-4.63Z"/>
        <path class="cls-1" d="M784.97,174.29c-5.13-1.66-9.46-3.59-12.97-5.77l-2.42-15.11c-.19-1.52.09-2.78.86-3.78.76-1,1.76-1.52,2.99-1.57,1.23-.05,2.42.41,3.56,1.35,5.8,5.13,12.21,9.43,19.25,12.9,7.03,3.47,12.73,5.2,17.11,5.2,1.9,0,3.45-.36,4.63-1.07,1.19-.71,1.78-1.88,1.78-3.49,0-1.14-.55-2.33-1.64-3.56-1.09-1.23-3.4-3.04-6.92-5.42-3.52-2.38-8.84-5.61-15.97-9.7-5.13-3.04-9.2-5.61-12.19-7.7-2.99-2.09-5.51-4.56-7.55-7.41-2.05-2.85-3.07-6.13-3.07-9.84,0-5.42,2.23-9.93,6.7-13.54,4.47-3.61,10.84-5.42,19.11-5.42,6.08,0,13.35,1.19,21.81,3.56l2,12.69c.29,2,.05,3.56-.71,4.71-.76,1.14-1.83,1.71-3.21,1.71s-2.78-.62-4.21-1.85c-4.94-4.28-9.84-7.84-14.68-10.69-4.85-2.85-8.75-4.28-11.69-4.28-1.62,0-2.97.41-4.06,1.21-1.09.81-1.64,1.78-1.64,2.92,0,2.19,1.83,4.78,5.49,7.77,3.66,2.99,8.34,5.97,14.04,8.91,8.74,4.56,15.09,9.03,19.04,13.4,3.94,4.37,5.92,9.27,5.92,14.69,0,6.37-2.28,11.57-6.84,15.61s-10.88,6.06-18.96,6.06c-5.23,0-10.41-.83-15.54-2.5Z"/>
        <path class="cls-1" d="M842.92,171.51c-2.99-3.52-4.49-9.6-4.49-18.25l.29-45.77h-7.41v-2.85l25.66-22.67v20.53h27.95v4.99h-27.95v54.18c0,4.28.21,7.08.64,8.41.43,1.33,1.07,2,1.92,2,1.33,0,3.4-1.85,6.2-5.56,2.8-3.71,5.96-8.89,9.48-15.54.76-1.33,1.78-2.14,3.06-2.42s2.42,0,3.42.86,1.5,2.09,1.5,3.71v16.11c-4.18,2.09-8.68,3.87-13.47,5.35-4.8,1.47-9.39,2.21-13.76,2.21-5.7,0-10.05-1.76-13.04-5.28Z"/>
        <path class="cls-1" d="M894.6,171.66c-3.04-3.14-4.56-7.13-4.56-11.98,0-3.04.71-5.85,2.14-8.41s3.78-5.11,7.06-7.63c3.28-2.52,7.72-5.15,13.33-7.91l5.42-2.71,19.11-8.98v4.99l-11.98,5.56c-5.99,2.85-10.36,5.68-13.12,8.48-2.76,2.8-4.13,5.77-4.13,8.91s1.04,5.56,3.14,7.56c2.09,2,4.85,2.99,8.27,2.99,2.38,0,4.89-.55,7.56-1.64,2.66-1.09,4.8-2.59,6.42-4.49l1.28,2.28c-2.66,5.23-6.23,9.48-10.69,12.76-4.47,3.28-9.74,4.92-15.83,4.92s-10.36-1.57-13.4-4.71ZM932.95,157.97v-41.77c0-4.47-.33-7.48-1-9.05-.67-1.57-1.71-2.35-3.14-2.35-2.19,0-4.99,1.45-8.41,4.35-3.42,2.9-8.41,8.1-14.97,15.61-1.24,1.43-2.59,2.19-4.06,2.28-1.47.1-2.66-.45-3.56-1.64-.9-1.19-1.21-2.73-.93-4.63l2.28-14.4c3.13-1.52,7.32-2.9,12.54-4.13,5.23-1.23,10.03-1.85,14.4-1.85,7.89,0,14.16,2.38,18.82,7.13,4.65,4.75,6.94,12.6,6.84,23.52l-.29,24.38,3.56,19.25h-18.82l-3.28-16.68Z"/>
      </g>
    </g>
  </g>
</svg>